<?xml version="1.0" encoding="UTF-8" standalone="no"?>
<!-- Created with Inkscape (http://www.inkscape.org/) -->

<svg
   version="1.1"
   id="svg1"
   width="770.73071"
   height="758.50336"
   viewBox="0 0 770.73071 758.50336"
   xmlns="http://www.w3.org/2000/svg"
   xmlns:svg="http://www.w3.org/2000/svg">
  <defs
     id="defs1" />
  <g
     id="g1"
     transform="translate(-101.92397,-190.07155)">
    <path
       style="fill:  green;"
       d="m 321.1597,948.28988 c -63.04375,-3.1421 -103.63034,-16.1963 -143.5,-46.15513 -16.40444,-12.32661 -35.26655,-32.66068 -46.54096,-50.17291 -9.58513,-14.88831 -22.52036,-44.20236 -24.52468,-55.57826 -0.48452,-2.75 -1.55629,-8.6 -2.38171,-13 -3.80284,-20.2716 -2.78941,-48.58452 2.4698,-69 3.32957,-12.92494 9.93395,-32.36937 13.93833,-41.03681 5.14297,-11.13195 16.44148,-30.04376 25.00967,-41.862 29.64047,-40.88356 66.87001,-73.62814 120.02955,-105.56986 5.775,-3.47 11.67485,-7.13262 13.11077,-8.13917 2.20229,-1.54373 38.01194,-18.91936 58.3704,-28.32258 7.86077,-3.63076 22.68162,-8.56958 25.71633,-8.56958 2.78146,0 4.8025,1.69414 4.8025,4.02569 0,2.78451 -4.18727,5.72991 -12.5,8.79273 -16.94714,6.24415 -53.7531,23.84838 -71.85314,34.36724 -67.49572,39.22521 -113.20636,81.68012 -140.30769,130.31434 -5.96771,10.70924 -10.10652,19.58194 -11.19518,24 -0.54211,2.2 -1.52631,6.025 -2.18713,8.5 -5.19295,19.44948 -8.00925,46.5373 -6.14463,59.10036 0.76945,5.18421 0.77697,7.53549 0.0256,7.99986 -0.74301,0.45921 -0.73157,0.76965 0.0379,1.02873 1.10486,0.372 3.50131,10.68809 3.31976,14.29066 -0.0532,1.05579 1.94566,8.03079 4.44194,15.5 4.01287,12.00707 6.13124,16.88081 14.5957,33.58039 2.91084,5.74283 11.35469,18.16868 16.30892,24 6.83891,8.04966 23.41982,23.9955 30.47371,29.30653 8.24729,6.20958 32.99992,20.65858 43.48424,25.38332 19.37225,8.73008 52.63998,16.61395 84,19.90645 19.77164,2.0759 87.62905,1.6102 104.6112,-0.718 11.89237,-1.6303 36.73623,-5.3246 39.3888,-5.857 75.81768,-15.21996 132.67836,-32.57165 194.80296,-59.44639 26.72834,-11.56253 68.6128,-33.42081 90.19704,-47.07122 9.4429,-5.97193 39.02975,-28.09788 41.5,-31.03498 0.275,-0.32697 4.55,-4.01234 9.5,-8.18972 24.98917,-21.08872 41.84816,-45.6011 52.88131,-76.88762 6.94281,-19.6876 8.13243,-26.11748 8.02805,-43.39137 -0.0981,-16.22908 -1.79785,-26.67103 -7.48812,-46 -3.75067,-12.74044 -5.9559,-18.25012 -13.10427,-32.74044 -20.20754,-40.96234 -42.3478,-65.89928 -78.81697,-88.77285 -19.17304,-12.02539 -53.65292,-24.97012 -77,-28.90801 -11.78062,-1.987 -37.30863,-4.94221 -48.5,-5.61453 -11.83499,-0.71098 -14.5,-1.83214 -14.5,-6.10011 0,-3.33219 2.58763,-3.6978 21.82037,-3.08307 38.48782,1.23017 80.81,11.55163 110.46855,26.94086 8.19166,4.25049 30.43198,18.78858 39.62921,25.90489 24.14815,18.68451 52.07751,58.60091 65.33295,93.37326 11.00234,28.86188 15.94869,60.73944 12.81896,82.61373 -3.32927,23.26889 -13.6994,49.41364 -27.9182,70.38627 -15.38829,22.69761 -20.49801,28.1355 -50.65184,53.90504 -18.23548,15.58409 -47.18176,34.86279 -72.5,48.28622 -24.27169,12.86856 -75.22658,35.27712 -98.93991,43.51107 -4.64195,1.61182 -9.35636,3.42105 -10.47647,4.02051 -1.12011,0.59947 -3.39716,1.44394 -5.06009,1.8766 -1.66294,0.43267 -6.39853,1.98404 -10.52353,3.44748 -8.20635,2.9114 -18.84799,6.2787 -32,10.12567 -4.675,1.36743 -10.6375,3.12551 -13.25,3.90683 -34.67432,10.37008 -63.67593,16.82888 -100.75,22.43768 -22.5815,3.4162 -28.43878,3.9593 -57.5,5.3309 -29.63625,1.3988 -36.11395,1.4266 -54.5,0.2338 -14.10247,-0.9149 -15.77293,-1.0966 -38,-4.132 -36.82384,-5.0288 -62.96088,-13.6126 -88.99185,-29.22621 -22.69475,-13.61249 -30.42347,-19.4521 -44.15989,-33.36604 -13.4145,-13.58786 -22.84826,-25.24369 -22.84826,-28.23004 0,-0.83276 -0.82003,-2.10212 -1.82228,-2.82081 -1.52067,-1.09042 -4.13738,-5.71587 -11.14425,-19.69919 -0.6881,-1.37321 -2.80667,-6.44445 -6.10245,-14.60751 -1.50096,-3.71759 -5.7797,-19.96036 -6.84903,-26 -1.36925,-7.73354 -3.03322,-31.05117 -3.17557,-44.5 -0.13996,-13.22272 -1.28719,-9.3288 -2.96471,10.06284 -2.18898,25.3039 2.21282,54.56602 11.27253,74.93716 16.74374,37.64898 38.00917,63.31497 70.58895,85.19626 19.37922,13.01554 38.44995,21.50984 61.49974,27.39284 19.28181,4.9213 32.26534,6.9944 65.19707,10.41 4.95,0.5134 25.7616,1.0161 46.24799,1.1172 31.14222,0.1535 37.06433,0.4049 36.12756,1.5337 -0.63301,0.7627 -3.05344,1.35 -5.56374,1.35 -2.44381,0 -5.30161,0.4594 -6.35067,1.0208 -5.57055,2.9813 -46.18597,5.5456 -69.46114,4.3855 z m 57.83245,-50.25737 c -9.80106,-3.387 -16.9866,-10.9322 -20.08004,-21.08513 -2.34365,-7.69205 -2.29736,-27.66303 0.0905,-39.0638 5.35565,-25.56996 20.66516,-54.57147 35.01457,-66.32974 11.72115,-9.6046 23.50152,-11.89838 32.85859,-6.39796 4.8853,2.87174 9.03945,7.54271 10.25044,11.52569 1.60942,5.29341 -5.31237,7.15992 -9.54224,2.57313 -6.1972,-6.72012 -13.49999,-6.66303 -22.21062,0.17365 -14.91005,11.70238 -29.54769,42.69349 -32.76611,69.37305 -2.98454,24.74115 4.33973,38.08218 20.90729,38.08218 14.84192,0 31.78967,-8.80383 49.14517,-25.52938 7.0485,-6.79267 9.81229,-8.17663 12.96223,-6.49084 11.16497,5.97532 -24.34301,37.08994 -49.60657,43.46881 -8.26655,2.08725 -20.50899,1.95149 -27.02321,-0.29966 z m 101.51206,-23.39893 c -4.13791,-3.36362 -9.14448,-16.69278 -16.24514,-43.25 -6.39921,-23.93372 -11.59937,-55.30664 -11.59937,-69.97979 0,-8.53744 1.24258,-10.52021 6.59287,-10.52021 4.3814,0 4.80299,1.01164 6.87621,16.5 0.88346,6.6 2.94336,18.57729 4.57757,26.6162 5.36269,26.37991 17.504,67.57004 21.06028,71.44825 2.52118,2.74942 2.498,8.04144 -0.0412,9.40037 -2.66798,1.42786 -9.35797,1.29978 -11.22123,-0.21482 z m 35.26072,-22.82708 c -5.25686,-3.20481 -7.42591,-6.05734 -10.44346,-13.73425 -1.58626,-4.03556 -4.66177,-25.73648 -4.66177,-32.89359 0,-4.3896 3.26987,-7.29508 8.21,-7.29508 4.92118,0 5.29291,0.89996 7.22836,17.5 1.73339,14.86694 3.69446,22.40524 6.48585,24.93141 1.85682,1.6804 2.08483,1.67654 5.07629,-0.086 6.44214,-3.79561 12.9995,-22.6496 12.9995,-37.37667 0,-4.91712 0.35612,-6.10477 2.22251,-7.41204 4.79592,-3.35919 11.77749,-0.89203 11.77749,4.16196 0,3.51003 3.78394,20.46971 5.96972,26.75643 1.20116,3.45474 3.33292,7.1218 5.05386,8.69363 3.69322,3.37323 3.74249,5.08224 0.22642,7.85392 -2.12696,1.67666 -3.63285,2.05004 -6.64675,1.64805 -4.35376,-0.5807 -6.47627,-2.38009 -9.41741,-7.98375 l -2.00133,-3.81307 -3.13427,5.81307 c -3.91393,7.25908 -5.77406,9.50729 -10.54482,12.74482 -4.94056,3.35275 -13.33861,3.57692 -18.40019,0.49116 z m 77.67035,0.32708 c -2.29494,-2.6174 -4.15333,-6.68936 -8.10088,-17.75 -9.48898,-26.58714 -15.75077,-58.22569 -17.31769,-87.5 -0.57939,-10.82446 -0.49242,-11.61014 1.48058,-13.375 1.15288,-1.03125 3.2798,-1.875 4.7265,-1.875 4.84385,0 6.03696,2.63748 7.35097,16.25 1.81559,18.80868 6.99189,49.14187 9.01248,52.81325 0.50596,0.91933 2.3126,-0.50744 6.0229,-4.75649 9.70024,-11.10877 23.6309,-18.56928 34.54956,-18.50287 8.77329,0.0534 13.57555,2.85726 17.04743,9.95354 2.38225,4.86913 2.65315,6.38108 2.19901,12.27291 -0.6176,8.01254 -2.6639,14.26608 -7.19991,22.00314 -4.85174,8.27557 -10.57613,14.3632 -16.69112,17.75022 -4.73803,2.62434 -6.3104,2.96454 -13.63933,2.95106 l -8.28393,-0.0152 0.217,4.19218 c 0.11936,2.3057 -0.37048,4.90006 -1.08852,5.76524 -1.79737,2.1657 -8.32956,2.05333 -10.28505,-0.17694 z m 26.33547,-24.10547 c 7.88194,-4.99858 15.70406,-18.98058 16.61638,-29.70167 0.42206,-4.95987 0.18867,-6.38391 -1.28836,-7.86093 -5.46702,-5.46703 -23.7664,4.78812 -35.36069,19.81647 -4.81694,6.24366 -4.90441,8.27804 -0.57703,13.42084 2.93038,3.48256 9.90747,7.17885 13.55287,7.17997 1.40482,4.4e-4 4.58039,-1.28417 7.05683,-2.85468 z M 226.82879,803.13358 c -2.67695,-2.28244 -9.70216,-24.74232 -14.70109,-47 -1.11989,-4.98628 -2.08875,-7.25 -3.10297,-7.25 -0.81106,0 -4.64711,1.35 -8.52455,3 -10.29486,4.38085 -15.84048,3.73527 -15.84048,-1.84405 0,-4.19888 1.7654,-5.72787 10.5,-9.0939 4.4,-1.69562 8.99358,-3.86575 10.20796,-4.8225 l 2.20797,-1.73955 -3.32579,-18 c -3.45859,-18.71877 -7.25257,-34.17334 -8.59261,-35.00153 -0.42776,-0.26437 -4.2939,2.21533 -8.59143,5.51043 -4.29753,3.29511 -8.82379,5.9911 -10.05837,5.9911 -1.23458,0 -3.4026,-1.07312 -4.81783,-2.38471 -2.08685,-1.93403 -2.28558,-2.49507 -1.05153,-2.96862 0.8369,-0.32114 1.52163,-1.21144 1.52163,-1.97844 0,-3.41859 16.21385,-15.709 29.71424,-22.52398 16.93404,-8.54827 28.44981,-11.54537 42.06587,-10.94805 8.03222,0.35237 10.61388,0.88726 14.86871,3.08068 15.84623,8.1689 17.8955,27.33268 4.99631,46.72312 -7.31725,10.99951 -22.49611,25.66113 -36.97637,35.71637 -2.54749,1.769 -4.44259,3.794 -4.21133,4.5 0.23125,0.706 2.03788,8.03363 4.01472,16.28363 1.97684,8.25 5.15431,20.0129 7.06105,26.13978 4.00409,12.86624 4.39481,17.7932 1.53254,19.32504 -2.89422,1.54893 -6.58987,1.252 -8.89665,-0.71482 z m 12.39856,-91.75 c 9.91166,-9.83239 16.29129,-19.50235 18.90423,-28.65418 4.77644,-16.72951 -8.97364,-23.78798 -32.38735,-16.62573 -8.12027,2.48399 -17.12547,6.72302 -17.75233,8.35659 -0.26471,0.68983 0.67952,4.77978 2.09828,9.08878 1.41877,4.309 4.15236,14.80954 6.07465,23.33454 1.92229,8.525 3.73324,16.53097 4.02433,17.79105 l 0.52925,2.29106 4.71819,-3.29106 c 2.59501,-1.81008 8.80085,-7.34105 13.79075,-12.29105 z m 59.05806,47.25 c -1.977,-3.13168 -6.2697,-22.2736 -9.13492,-40.7342 -2.57173,-16.5696 -3.99569,-31.92336 -5.06788,-54.6439 -0.63828,-13.52546 -0.5762,-14.21861 1.45519,-16.25 2.79931,-2.79931 6.69703,-2.74025 8.454,0.1281 0.81864,1.33647 1.87752,8.34017 2.60802,17.25 1.89896,23.16142 6.27307,57.04653 7.52564,58.29909 0.29383,0.29384 0.53424,-2.2e-4 0.53424,-0.65346 0,-3.0056 6.77539,-14.60564 10.57841,-18.11114 10.05471,-9.26811 21.36961,-7.43796 27.28869,4.41386 1.95033,3.90516 7.15165,25.15933 8.83617,36.10724 0.71252,4.63081 -2.94615,6.7044 -9.01917,5.11171 -3.76095,-0.98633 -5.09175,-4.45624 -7.57965,-19.76306 -2.39685,-14.74666 -4.2536,-19.90424 -7.16562,-19.90424 -6.7243,0 -15.04264,19.51158 -16.58834,38.90981 -0.7749,9.72489 -2.30625,12.09019 -7.82744,12.09019 -2.51819,0 -3.86861,-0.62043 -4.89734,-2.25 z m 73.08207,-20.52041 c -1.86077,-2.05612 -10.09716,-35.83502 -10.16317,-41.68094 -0.0372,-3.29184 0.41438,-4.20982 2.70539,-5.5 2.47496,-1.39376 3.02504,-1.39508 5.5,-0.0131 3.15642,1.76245 3.92525,3.77571 8.7675,22.95838 4.9494,19.60719 5.1385,21.35011 2.59269,23.89592 -2.57194,2.57194 -7.23,2.74027 -9.40241,0.33978 z m 28.84249,-4.58841 c -2.40799,-2.408 -7.52343,-16.81228 -11.46157,-32.27403 -4.55291,-17.87541 -10.76026,-60.84327 -9.50959,-65.82631 0.79146,-3.15345 4.44913,-4.70974 7.49736,-3.19003 2.08478,1.03937 2.63802,2.70307 4.70982,14.16345 6.41901,35.5074 9.54825,49.5457 14.66284,65.77988 3.05298,9.69042 5.55087,18.08851 5.55087,18.66241 0,1.96326 -3.99751,5.04345 -6.54545,5.04345 -1.4,0 -3.60693,-1.06147 -4.90428,-2.35882 z m 219.21199,0.28558 c -2.51317,-1.46419 -3.54309,-3.79936 -6.81517,-15.45228 -11.1181,-39.59508 -21.47911,-68.96483 -32.39656,-91.83266 -3.1137,-6.522 -5.52386,-12.81779 -5.3559,-13.99064 0.16795,-1.17284 1.52408,-2.71471 3.01361,-3.42637 3.60624,-1.72295 5.82967,-0.32772 10.3985,6.52519 1.92509,2.8875 3.83784,5.25 4.25055,5.25 0.41271,0 2.30115,-1.60971 4.19654,-3.57714 1.89539,-1.96742 6.19205,-5.1189 9.54813,-7.00327 12.69347,-7.12716 23.30567,-8.3284 32.41858,-3.66959 7.24726,3.70502 10.74445,8.33361 12.19666,16.14247 2.66621,14.33683 -5.53716,31.23914 -19.73568,40.66358 -8.57452,5.69144 -15.03091,6.89456 -18.48152,3.44395 -3.96837,-3.96837 -1.6034,-10 3.92095,-10 5.66968,0 15.31473,-8.86103 19.04837,-17.5 3.87715,-8.97098 3.61701,-16.64094 -0.71118,-20.96914 -6.72074,-6.72073 -26.61827,0.33556 -35.29101,12.51531 l -2.00262,2.81242 3.10905,7.8207 c 10.79633,27.15773 27.8607,79.95207 28.12635,87.01825 0.1931,5.13655 -4.82465,7.91679 -9.43765,5.22922 z m 120.57568,-4.92539 c -2.61425,-1.05421 -3.80133,-4.267 -2.48521,-6.72619 0.52994,-0.9902 3.05088,-3.70003 5.6021,-6.02184 6.28361,-5.71859 16.34034,-19.23519 21.89971,-29.43399 5.37631,-9.86298 8.76083,-18.52135 11.62516,-29.73986 2.1094,-8.26167 4.54453,-28.8886 3.53022,-29.9029 -0.30576,-0.30576 -1.31199,0.54193 -2.23606,1.88374 -9.4335,13.69801 -26.35992,14.75366 -34.36134,2.14302 -4.5476,-7.16724 -6.94951,-16.26766 -8.19912,-31.06505 -1.07104,-12.68287 -1.03191,-13.43223 0.77025,-14.75 2.43461,-1.78024 7.93646,-1.79195 9.40702,-0.02 0.62456,0.75255 1.79128,6.94005 2.5927,13.75 1.87357,15.92035 3.82399,22.38909 8.01398,26.57908 3.94978,3.94978 5.42088,4.08378 9.2706,0.84445 6.18663,-5.2057 11.51323,-23.2697 10.97933,-37.23394 -0.2827,-7.39388 1.14043,-9.30786 6.9208,-9.30786 5.47036,0 6.24449,2.49984 9.90949,32 0.87836,7.07005 0.87759,27.75082 -10e-4,35.5 -3.02432,26.66497 -20.06725,59.91873 -38.85322,75.80953 -7.93299,6.7104 -9.91473,7.49453 -14.38509,5.69184 z M 432.9691,719.35047 c -8.25124,-4.11177 -13.3094,-13.43934 -13.3094,-24.5434 0,-18.12578 8.71386,-28.92349 23.34156,-28.92349 7.72561,0 13.22774,2.61486 18.99161,9.02567 12.584,13.99643 7.7727,38.6004 -8.91149,45.5715 -5.47628,2.28813 -14.24085,1.79558 -20.11228,-1.13028 z m 18.201,-11.77729 c 8.66291,-8.66291 5.69031,-26.15805 -5.04659,-29.70154 -8.22317,-2.71389 -12.40271,1.42574 -13.23889,13.11249 -0.59215,8.27604 0.8853,12.91103 5.37093,16.84947 4.72104,4.14512 8.58696,4.06717 12.91455,-0.26042 z m 35.9896,10.37997 c -4.08999,-0.98937 -7.47546,-3.23797 -7.61848,-5.06012 -0.44075,-5.61501 1.92927,-7.35064 8.88078,-6.50364 6.59589,0.80366 11.39279,-0.71298 14.70497,-4.64929 5.4281,-6.45093 2.25742,-12.15643 -11.3806,-20.47889 -11.11292,-6.78155 -16.27866,-11.73736 -17.90995,-17.18214 -2.62496,-8.76132 -0.72384,-15.61916 6.00772,-21.67141 6.1293,-5.51077 11.98329,-7.57036 23.43608,-8.24544 8.36413,-0.49302 9.29711,-0.36101 11.25,1.59188 2.606,2.606 2.67609,4.23288 0.30836,7.15691 -1.53414,1.89457 -3.22822,2.36937 -10.75,3.01288 -10.61659,0.90829 -13.43137,1.8761 -16.38788,5.6347 -1.66417,2.11565 -2.08566,3.66235 -1.67971,6.16391 0.7541,4.64699 1.68566,5.54311 14.24658,13.70454 6.10933,3.96952 12.24114,8.73363 13.62624,10.58692 9.67275,12.94233 3.3434,29.8198 -13.08945,34.90352 -6.67772,2.06584 -8.7392,2.22231 -13.64466,1.03567 z m 61.68424,-23.19145 c -7.97278,-1.47102 -15.74351,-8.08064 -18.27265,-15.54235 -0.71508,-2.10967 -1.32521,-7.21077 -1.35586,-11.33577 -0.0464,-6.24133 0.40922,-8.44677 2.71474,-13.14151 6.76273,-13.77095 21.47758,-20.1771 32.84461,-14.29898 8.21476,4.24802 13.57452,16.57703 12.67206,29.14943 -1.22719,17.09627 -13.55635,27.94534 -28.6029,25.16918 z m 11.32616,-14.18852 c 4.07822,-4.07822 5.88151,-10.3021 5.19614,-17.93397 -1.05304,-11.72606 -6.70166,-15.67171 -14.78121,-10.32492 -9.50814,6.29219 -10.85866,22.75697 -2.41165,29.40139 4.05274,3.18788 8.0467,2.80752 11.99672,-1.1425 z m -203.72484,-5.4396 c -3.09647,-3.55468 -2.76829,-10.22618 0.61414,-12.48469 1.71854,-1.14749 6.07395,-0.89166 7.4003,0.43469 1.7084,1.7084 1.48536,8.94757 -0.3567,11.57749 -1.86519,2.66292 -5.55154,2.89038 -7.65774,0.47251 z m 319.08436,-20.26299 c -4.83682,-2.82531 -14.08975,-36.58325 -16.83409,-61.41667 -0.54275,-4.91132 -1.29234,-18.49673 -1.66577,-30.18981 -0.60992,-19.09839 -0.50489,-21.5258 1.03291,-23.87278 1.48887,-2.27231 2.29587,-2.57324 6.19515,-2.3102 l 4.48329,0.30245 0.38033,16.5 c 0.53445,23.18632 3.64128,49.67528 7.65517,65.26824 l 0.97,3.76825 3.70105,-7.26825 c 4.80491,-9.43603 12.17325,-16.94991 18.2956,-18.65696 12.15455,-3.38897 21.56224,5.55839 26.69493,25.38872 3.4973,13.51194 3.67564,16.04587 1.2967,18.42481 -2.35127,2.35127 -5.8597,2.68447 -8.43534,0.80111 -1.07615,-0.7869 -2.81725,-5.52227 -4.55333,-12.38395 -4.55806,-18.01526 -7.74219,-22.62703 -13.6446,-19.7623 -6.7281,3.26548 -13.11181,18.56737 -14.29865,34.27416 -0.56913,7.53198 -1.07868,9.62577 -2.61616,10.75 -2.1856,1.59816 -6.26787,1.77884 -8.65719,0.38318 z M 262.53517,631.44075 c -5.16604,-2.932 -4.3717,-10.55717 1.09978,-10.55717 1.91875,0 3.02475,0.50935 3.02475,1.39301 0,2.25233 2.6659,2.63615 7.19962,1.03656 9.19724,-3.24497 17.29871,-9.60343 16.63396,-13.05519 -0.49622,-2.57666 -5.87876,-5.9017 -13.63672,-8.42401 -14.33842,-4.66179 -19.47082,-9.75491 -17.26139,-17.12931 4.75174,-15.8599 40.56234,-30.55065 38.86882,-15.94534 -0.28997,2.50076 -0.5867,2.62652 -6.30429,2.67195 -7.04005,0.0559 -12.4175,2.49155 -19.09941,8.65073 -4.54461,4.18907 -5.59563,7.56491 -3.02061,9.702 0.759,0.6299 5.1642,2.42443 9.78935,3.98783 10.85448,3.66904 14.00894,5.34649 17.21155,9.15258 2.76761,3.28911 3.38828,7.80595 1.68738,12.27966 -3.82697,10.0657 -27.97679,20.89971 -36.19279,16.2367 z m 49.05988,-7.40844 c -1.79913,-1.45685 -2.3784,-3.12575 -2.71892,-7.83334 -1.04713,-14.47652 12.09227,-27.93633 23.83644,-24.4177 2.22907,0.66785 4.33375,1.97658 4.67706,2.90829 0.3433,0.93171 1.04787,1.97855 1.5657,2.32632 0.51783,0.34776 1.5455,4.39776 2.2837,9 0.73819,4.60223 1.90353,10.28293 2.58964,12.62377 1.08104,3.68829 1.03086,4.47267 -0.37612,5.87965 -2.83939,2.83939 -6.52101,1.03224 -7.93595,-3.89543 -0.66966,-2.33216 -1.33368,-4.40005 -1.47558,-4.5953 -0.14191,-0.19526 -1.70256,1.29023 -3.46811,3.30108 -1.76555,2.01085 -4.47095,4.30811 -6.01199,5.10501 -3.92824,2.03137 -10.20073,1.83673 -12.96587,-0.40235 z m 16.77737,-16.02487 c 3.49969,-6.70432 3.40285,-9.12386 -0.36516,-9.12386 -4.5107,0 -11.27194,9.6513 -11.3256,16.16667 -0.0529,6.4293 6.81939,2.28923 11.69076,-7.04281 z m 24.85871,12.30471 c -0.86429,-0.86428 -1.58362,-2.32678 -1.59853,-3.25 -0.0149,-0.92321 -0.43744,-5.92196 -0.93898,-11.10832 -0.97514,-10.08389 -0.31737,-13.07025 2.87882,-13.07025 2.27376,0 3.59126,1.59544 4.54186,5.5 l 0.73038,3 2.36699,-4.63256 c 4.72482,-9.24718 11.31266,-13.56772 16.37874,-10.74176 2.65502,1.48103 3.76524,4.21686 6.23901,15.37432 1.20888,5.45244 1.58664,6.0294 4.13934,6.32212 3.54442,0.40645 4.37632,2.48292 2.27784,5.6856 -1.26904,1.9368 -2.48485,2.49228 -5.45497,2.49228 -5.17008,0 -6.86499,-2.16726 -8.68445,-11.10471 -2.15786,-10.5997 -2.10578,-10.50641 -4.62304,-8.28141 -2.31269,2.04418 -9.82444,17.17059 -9.82444,19.78347 0,1.98826 -3.50209,5.60265 -5.42857,5.60265 -0.78572,0 -2.13572,-0.70714 -3,-1.57143 z m 66.55547,-6.89453 c -7.75871,-2.47629 -13.06025,-9.96709 -11.48791,-16.23182 1.10769,-4.41339 8.36101,-4.33999 8.36101,0.0846 0,1.34728 0.27953,3.17804 0.62118,4.06837 0.82952,2.16169 5.60468,4.5448 9.10665,4.5448 6.8594,0 9.90712,-6.03735 8.86319,-17.55745 -0.69366,-7.65484 -6.11353,-31.36506 -7.48262,-32.73415 -0.44083,-0.44083 -3.62921,-0.34611 -7.08529,0.21048 -4.19681,0.67587 -6.90475,0.67965 -8.15345,0.0114 -2.13434,-1.14226 -2.47333,-4.22586 -0.61966,-5.6368 0.6875,-0.5233 8.10311,-2.21629 16.47913,-3.76221 12.39899,-2.28841 15.51177,-2.57619 16.75,-1.54855 3.26339,2.70837 0.72781,6.99138 -4.16339,7.03263 -4.17866,0.0352 -4.22504,1.08761 -0.66046,14.98469 3.9144,15.26089 5.15286,27.40497 3.4372,33.70453 -2.80506,10.29967 -13.66937,16.11567 -23.96558,12.82951 z m 38.17886,-8.94974 c -2.60849,-2.24585 -2.80301,-2.93137 -2.76665,-9.75 0.0454,-8.51948 2.22096,-13.66044 7.8854,-18.63387 5.02835,-4.41495 10.47586,-5.88346 15.5783,-4.1995 2.19846,0.72555 3.99719,1.86706 3.99719,2.53668 0,0.66963 0.63589,1.74524 1.41308,2.39025 0.7772,0.64502 1.72996,3.51262 2.11725,6.37245 0.72652,5.36474 2.4245,9.49524 5.55519,13.51351 2.14291,2.75046 1.52365,5.00408 -1.71322,6.23473 -3.18733,1.21182 -5.04375,0.32884 -7.78254,-3.70164 l -2.31108,-3.40106 -2.75517,3.61221 c -5.74202,7.52818 -13.8491,9.64852 -19.21775,5.02624 z m 11.6265,-8.51178 c 2.56305,-2.74376 7.06774,-12.65757 7.06774,-15.55452 0,-2.22667 -2.60086,-2.43894 -5.82909,-0.47574 -3.87273,2.35514 -7.17091,8.67988 -7.17091,13.75124 0,6.13564 1.71439,6.79426 5.93226,2.27902 z m 37.27678,4.94304 c -6.75961,-1.60153 -10.22294,-7.29045 -10.18708,-16.73344 0.0271,-7.14269 2.43453,-12.71972 7.35586,-17.0407 5.79822,-5.0909 14.28054,-3.94797 13.46715,1.81461 -0.27778,1.96798 -0.92925,2.44687 -3.34497,2.45887 -1.65,0.008 -3.75594,0.45841 -4.67986,1.0005 -2.74418,1.61005 -4.8074,6.65887 -4.81398,11.78005 -0.005,3.81976 0.51598,5.3176 2.56013,7.36175 3.53334,3.53334 7.72678,2.61361 12.65355,-2.77525 4.09557,-4.47969 6.11288,-4.64284 6.59863,-0.53365 0.50627,4.28279 -3.17552,9.12882 -8.76128,11.53175 -5.28302,2.2727 -5.81388,2.32826 -10.84815,1.13551 z m -44.54825,-74.63427 c -1.56156,-0.84626 -7.6903,-4.87 -13.61943,-8.94166 -5.92912,-4.07166 -18.59011,-11.34876 -28.13552,-16.17132 -12.86005,-6.49721 -17.75036,-9.47836 -18.88057,-11.50968 -2.7217,-4.89172 2.25026,-9.06639 5.75097,-4.82877 0.94807,1.14764 6.67376,4.1158 12.72376,6.59592 12.13327,4.97388 23.32168,11.40322 37,21.26178 10.43497,7.52094 15.5,12.06594 15.5,13.90861 0,1.82215 -6.77663,1.61577 -10.33921,-0.31488 z m 37.8244,-0.51164 c -6.50908,-3.47955 -12.44929,-7.84493 -20.84523,-15.31888 -26.2358,-23.35476 -35.4993,-28.65258 -53.24569,-30.45135 -9.26111,-0.9387 -11.53529,-2.06697 -9.77886,-4.85149 2.28342,-3.61998 17.88908,-4.09814 27.1469,-0.83179 6.48616,2.28845 18.24151,8.41633 23.3767,12.1859 2.69192,1.97605 6.68513,3.79916 9.5021,4.3382 2.67239,0.51137 11.15889,2.50224 18.85889,4.42415 7.7,1.92191 19.4,4.67692 26,6.12225 19.57448,4.28658 19.66792,4.31958 19.3123,6.81868 -0.2712,1.90583 -1.03616,2.23914 -5.8123,2.53247 -7.92631,0.48681 -29.90905,-3.68527 -46.90219,-8.90151 -3.52121,-1.08087 -6.59417,-1.77326 -6.82879,-1.53863 -0.54784,0.54784 15.84913,14.20632 23.70845,19.74886 6.9384,4.89309 7.97793,7.85349 2.75772,7.85349 -1.79564,0 -5.05814,-0.95866 -7.25,-2.13035 z m 46.18148,1.46368 c -1.5755,-1.57549 -0.21143,-3.79663 7.41129,-12.06799 8.75529,-9.50031 17.64875,-22.23754 20.27337,-29.03558 3.22952,-8.36481 1.73598,-16.66096 -4.32269,-24.01118 -1.66575,-2.02085 -3.02864,-4.02174 -3.02864,-4.44642 0,-2.01753 6.98,-0.56927 10.88305,2.25808 6.97472,5.05246 8.29567,8.06766 7.88009,17.98706 -0.38706,9.23867 -3.26649,17.04014 -9.78749,26.51809 -9.48687,13.7887 -25.70387,26.40306 -29.30898,22.79794 z m 55.91742,-22.64818 c -1.57694,-1.15309 -1.78005,-2.82431 -1.65094,-13.58366 0.081,-6.74784 -0.15058,-14.9011 -0.51457,-18.11836 l -0.6618,-5.84956 -5.16277,-2.09542 c -7.56619,-3.07088 -16.59401,-10.44415 -16.59401,-13.55277 0,-3.44489 2.36895,-3.22978 10.67036,0.96891 3.7563,1.89986 11.10464,4.66361 16.32964,6.14167 12.88225,3.64416 27.29242,10.99558 31.64423,16.14345 1.68308,1.99098 0.44378,5.27663 -2.39778,6.35699 -2.04882,0.77896 -3.37288,0.35725 -7.6133,-2.42482 -13.59889,-8.922 -18.4433,-10.72699 -17.23491,-6.42158 0.34733,1.2375 0.91709,8.16567 1.26615,15.39594 l 0.63464,13.14593 -2.60406,2.60407 c -2.97391,2.97391 -3.62039,3.1103 -6.11088,1.28921 z m -75.08409,-8.14785 c -2.2,-0.82896 -4.09667,-1.51396 -4.21482,-1.52224 -0.11815,-0.008 -0.72711,-0.97229 -1.35324,-2.14223 -1.65177,-3.08637 0.17363,-3.83946 9.35018,-3.85752 13.99308,-0.0275 17.72418,-3.21945 18.49798,-15.82483 0.50362,-8.20395 1.4731,-11.19048 3.63264,-11.19048 2.38175,0 3.69769,2.71465 4.68067,9.65577 1.69088,11.9398 -0.83249,19.53563 -7.85168,23.63506 -4.45173,2.59995 -17.28314,3.30324 -22.74173,1.24647 z m -144.3,-10.7373 c -5.00434,-5.00434 6.01604,-13.67884 39.04788,-30.73584 20.70078,-10.68947 24.91758,-11.91176 25.55929,-7.40866 0.42396,2.97507 -3.28112,5.59214 -21.80717,15.40341 -16.1563,8.55627 -20.31654,11.13994 -30.80977,19.13407 -6.3243,4.81809 -9.74893,5.84832 -11.99023,3.60702 z m 66.05,-18.46228 c -2.13869,-0.86298 -1.3797,-4.76734 1.75549,-9.03054 4.74027,-6.44577 6.14716,-11.63893 6.72055,-24.80718 0.5154,-11.83621 1.22474,-14.5 3.86122,-14.5 2.59723,0 3.75389,4.56456 4.07666,16.08785 0.23829,8.50685 -0.10172,13.02684 -1.27879,17 -3.49297,11.79044 -9.27371,17.615 -15.13513,15.24987 z m 76.11698,-13.74729 c -3.5841,-1.66882 -6.08808,-3.77816 -8.29804,-6.99023 -1.74076,-2.53011 -3.9309,-4.61638 -4.86698,-4.63616 -2.30689,-0.0487 -6.41417,-3.62275 -9.72696,-8.46404 l -2.73711,-4 0.61192,4.75 0.61193,4.75 h -4.44324 -4.44325 l 0.59078,-6.75 c 0.70755,-8.08411 1.50923,-9.25903 4.56034,-6.68353 l 2.27363,1.91922 -2.05916,-2.49284 c -3.41889,-4.13897 -4.40626,-7.61844 -5.08022,-17.90253 -0.7914,-12.07614 -0.15046,-15.34252 2.92473,-14.90524 1.71174,0.24341 2.47272,1.36032 3.35112,4.91853 1.47812,5.98754 2.75207,8.27026 6.07368,10.88304 2.57124,2.02254 2.79424,2.04404 4.00632,0.38642 0.70594,-0.96543 1.28353,-2.97118 1.28353,-4.45721 0,-1.48604 0.675,-2.9609 1.5,-3.27749 0.825,-0.31658 1.5,-1.24907 1.5,-2.07219 0,-2.50599 5.88319,-8.37253 9.6395,-9.61222 1.94675,-0.64248 4.79425,-0.91721 6.32779,-0.6105 2.19659,0.43932 3.64365,-0.17455 6.81944,-2.89291 4.84706,-4.14889 6.68075,-4.44928 5.80263,-0.95055 -0.53419,2.12836 -0.28272,2.5 1.69159,2.5 2.77527,0 4.71905,-1.72998 4.71905,-4.2 0,-1.33333 -0.77778,-1.8 -3,-1.8 -5.89837,0 -2.77116,-3.54853 4.04961,-4.59522 4.05306,-0.62196 9.95039,-2.89823 9.95039,-3.84067 0,-0.21149 -1.34964,-3.23744 -2.99921,-6.72432 -3.5812,-7.57 -3.96996,-15.10918 -1.10446,-21.41839 2.41664,-5.32091 5.99742,-8.0304 12.55099,-9.49702 5.19748,-1.16315 5.33803,-1.28736 5.86002,-5.17914 0.29416,-2.19307 1.00971,-4.46229 1.59012,-5.0427 3.20443,-3.20443 8.41116,9.86322 6.205,15.57309 -1.45433,3.764 -3.77148,4.45676 -6.1974,1.85284 -3.08037,-3.30639 -7.44853,-2.785 -11.62057,1.38704 -3.40884,3.40884 -3.5032,3.70882 -3.10981,9.88686 0.3487,5.47615 0.9972,7.25224 4.61551,12.64078 2.43973,3.63335 4.20981,7.44126 4.20981,9.05643 0,3.25549 -3.15943,5.90042 -7.04819,5.90042 -3.27913,0 -5.91242,2.85407 -9.78418,10.6045 -2.76132,5.52758 -3.64733,6.40177 -9.37503,9.25 -7.16745,3.56417 -8.48121,3.75234 -11.4891,1.64553 -1.92181,-1.34609 -2.45695,-1.32044 -5.21618,0.25 -1.69107,0.96248 -3.07751,2.19997 -3.08097,2.74997 -0.003,0.55 1.5687,2.25668 3.49368,3.79263 3.92798,3.13414 4.37546,5.67626 1.99997,11.36161 -0.825,1.97451 -1.5003,3.64755 -1.50066,3.71788 -3.6e-4,0.0703 1.67167,0.12788 3.71562,0.12788 3.26696,0 3.82267,0.36271 4.59631,3 1.41319,4.81744 4.88055,11.5 5.96698,11.5 0.61387,0 0.7695,-1.94898 0.40284,-5.04485 -1.00401,-8.47732 1.85041,-12.22437 7.63646,-10.02452 1.90163,0.723 2.87142,2.1127 3.68146,5.27547 1.81339,7.08037 2.0989,7.57787 3.03804,5.2939 0.45231,-1.1 0.85401,-3.84276 0.89266,-6.09501 0.073,-4.25207 2.31967,-7.40499 5.27659,-7.40499 2.37859,0 3.6935,2.19869 4.79805,8.02292 1.21385,6.40061 1.5607,6.8406 3.70346,4.69784 2.23683,-2.23683 2.98198,-12.55244 1.15168,-15.94355 -0.74772,-1.38534 -2.84733,-4.19645 -4.66579,-6.24693 l -3.30631,-3.72813 -4.87908,2.09893 c -7.52409,3.23678 -19.00831,2.4265 -19.00831,-1.34115 0,-2.89853 3.92782,-3.86228 12.42841,-3.04949 12.17655,1.16426 22.57159,1.34942 22.57159,0.40205 0,-0.46455 -0.76486,-2.44857 -1.69969,-4.40892 -1.23122,-2.58189 -2.12699,-3.3735 -3.25,-2.87209 -3.93611,1.75744 -8.56389,1.50136 -10.80031,-0.59764 -4.83504,-4.53795 -0.99639,-10.85724 7.15321,-11.77582 4.27678,-0.48206 4.6209,-0.75427 6.20852,-4.91141 1.37849,-3.60953 1.54257,-6.0598 0.91231,-13.62384 -1.4017,-16.82243 -1.36788,-17.22277 1.45488,-17.22277 2.29206,0 2.64469,0.67844 4.67785,9 2.61568,10.70578 2.81823,16.12599 0.87541,23.42615 -1.43177,5.37986 -1.42206,5.44656 1.13828,7.8194 2.26539,2.0995 2.50816,2.93464 1.97783,6.80378 -0.46085,3.36229 -0.14309,5.1926 1.33701,7.70118 1.06784,1.80986 2.60252,5.16408 3.41039,7.45383 1.24919,3.54058 1.26183,4.335 0.0846,5.31204 -0.76136,0.63187 -2.25077,0.87385 -3.30981,0.53772 -1.80098,-0.57161 -1.91776,-0.0757 -1.80559,7.66738 0.0979,6.75876 -0.28296,9.03422 -2.07467,12.39499 -5.11893,9.60174 -9.30323,12.25881 -15.32056,9.72872 -4.58145,-1.92636 -5.5784,-1.70391 -6.92413,1.54498 -1.25091,3.01987 -4.04998,4.10983 -10.55426,4.10983 -3.51713,0 -14.08242,-6.50002 -20.53343,-12.63265 -1.94819,-1.85204 -3.87652,-3.36735 -4.28519,-3.36735 -1.69457,0 1.68364,4.17996 6.09539,7.542 4.89641,3.73138 7.76698,7.7833 6.7173,9.48171 -1.03198,1.66979 -5.7641,1.05977 -11.11836,-1.43328 z m -7.3466,-30.62851 c 1.41791,-2.6494 0.21826,-11.60056 -1.3452,-10.0371 -0.59135,0.59135 -2.16906,1.07518 -3.50602,1.07518 -2.23547,0 -2.38358,0.29127 -1.84275,3.62403 0.5645,3.47859 3.09728,7.37597 4.79339,7.37597 0.44541,0 1.30067,-0.91714 1.90058,-2.03808 z m -35.6563,7.87985 c -3.86513,-1.89208 -5.97418,-10.83167 -3.20802,-13.59783 0.87475,-0.87475 0.28259,-2.12288 -2.43345,-5.12922 -3.61821,-4.00492 -5.70675,-9.26549 -5.71703,-14.3999 -0.006,-2.85648 1.63995,-6.03551 5.73857,-11.08554 1.28144,-1.5789 2.96527,-4.3914 3.74184,-6.25 1.15939,-2.7748 1.94884,-3.37928 4.41329,-3.37928 5.58167,0 5.7094,2.67257 0.69299,14.5 -1.39964,3.3 -2.55548,7.25543 -2.56853,8.78984 -0.0315,3.69979 3.40907,10.29242 6.39108,12.24631 2.27969,1.49371 2.36454,1.94086 1.85276,9.76462 -0.29499,4.50958 -0.58837,8.25916 -0.65196,8.33241 -0.74694,0.86044 -6.61682,1.00882 -8.25154,0.20859 z m -39.25401,-18.23728 c -4.31614,-2.39225 -6.51344,-8.80112 -3.91007,-11.40449 1.81474,-1.81474 2.60211,-1.48336 4.30643,1.81243 1.17173,2.26589 2.69565,3.31675 6.14934,4.24048 5.20017,1.39083 6.46678,3.18309 3.71966,5.26333 -2.35225,1.78122 -7.13666,1.82236 -10.26536,0.0883 z m -10.71872,-17.03593 c -4.14331,-1.80352 -7.39135,-8.52802 -7.39135,-15.3025 0,-6.34453 0.70565,-8.26606 3.03556,-8.26606 3.1333,0 4.96444,2.82803 4.96444,7.66714 0,5.74509 2.17752,9.41415 7.63409,12.86321 2.37704,1.50252 4.08024,3.12285 3.78489,3.60075 -0.81773,1.32311 -8.52365,0.9627 -12.02763,-0.56254 z m 20.10865,-1.97107 c -6.23157,-2.75069 -9.38383,-9.15099 -9.45611,-19.19961 -0.0506,-7.03043 2.31005,-11.53241 7.69658,-14.67832 3.77852,-2.20677 14.23622,-3.90934 15.88406,-2.58601 0.61849,0.49669 1.37264,3.03234 1.67588,5.63476 0.30324,2.60243 0.84598,5.68222 1.20609,6.84398 1.50715,4.8623 -9.36397,2.9894 -11.63971,-2.00532 -1.62503,-3.56654 -3.79509,-4.0208 -6.61745,-1.38524 -2.16059,2.01758 -2.39284,2.93775 -2.02976,8.04171 0.63752,8.96206 3.88346,12.03572 15.03042,14.23267 3.59872,0.70927 3.50402,3.06261 -0.20034,4.97821 -3.5803,1.85145 -7.53867,1.89366 -11.54966,0.12317 z m -25.4785,-26.80401 c -4.58142,-3.08742 -7.04224,-7.5943 -7.71715,-14.1336 -0.45964,-4.45345 -0.1069,-6.41142 1.97389,-10.95646 2.68614,-5.86729 6.36872,-9.15986 9.08086,-8.11912 2.21954,0.85172 2.07825,4.76236 -0.40846,11.30501 -3.14103,8.26418 -1.91378,10.99041 8.22831,18.27862 1.89569,1.36226 2.11912,2.00368 1.21921,3.5 -1.72073,2.86111 -8.21953,2.92703 -12.37666,0.12555 z m 91.2285,-12.45576 c -1.32152,-0.53325 -1.66123,-4.10249 -0.64301,-6.75593 0.71712,-1.8688 5.45455,-2.12025 7.19301,-0.38179 3.58322,3.58322 -1.53542,9.16115 -6.55,7.13772 z m -68.1272,-2.35063 c -10.56558,-2.46064 -15.9643,-14.25819 -11.67017,-25.50221 2.13555,-5.59188 5.95663,-8.8714 8.65424,-7.42768 2.41039,1.29 2.38664,3.05511 -0.10687,7.9428 -1.1,2.15618 -2,5.65981 -2,7.78585 0,4.42074 2.00969,6.73827 8.79872,10.14648 4.38129,2.19948 6.16963,4.54899 4.58406,6.02249 -1.54773,1.43834 -4.78126,1.84244 -8.25998,1.03227 z m 14.23888,-9.19662 c -4.91055,-3.48858 -7.65527,-8.28565 -8.14929,-14.24287 -0.54464,-6.56764 1.17725,-12.10157 4.4282,-14.23167 3.86327,-2.53132 4.8823,-0.6511 3.48803,6.43581 -0.63501,3.2277 -0.86473,7.31773 -0.51048,9.08896 0.81303,4.06513 4.67907,7.1593 8.94529,7.1593 3.03375,0 6.43657,2.0705 6.43657,3.91644 0,0.42547 -0.82293,1.51833 -1.82874,2.42857 -2.64464,2.39336 -9.05043,2.11605 -12.80958,-0.55454 z m 37.16674,0.25552 c -0.97816,-1.58269 0.50314,-5.72925 2.80619,-7.85531 4.48958,-4.14455 18.37268,-5.5933 25.41246,-2.65189 4.20584,1.75731 5.216,2.98064 5.23762,6.34288 0.0145,2.26393 -0.1948,2.34153 -4.23469,1.56982 -8.15005,-1.55684 -16.92772,-1.00168 -21.46016,1.35728 -4.55677,2.37162 -6.83579,2.73491 -7.76142,1.23722 z m -27.03395,-15.05494 c -1.15644,-1.87115 0.59328,-4.89832 5.14926,-8.90865 8.72852,-7.68315 18.45278,-10.41762 19.16826,-5.39013 0.23253,1.63394 -0.53151,2.61806 -3,3.86416 -1.8216,0.91954 -4.43699,2.69968 -5.81199,3.95587 -6.81927,6.23 -13.84497,9.16559 -15.50553,6.47875 z m -43.8278,-5.65772 c -1.54771,-1.5477 -0.53097,-9.20807 1.84317,-13.88699 7.95381,-15.67517 29.52221,-28.00031 75.26306,-43.00865 25.63709,-8.41196 32.21688,-9.70768 51.2271,-10.08783 11.49375,-0.22985 18.78676,0.0508 21.24915,0.81761 2.06203,0.64216 4.00548,0.91124 4.31877,0.59794 1.04041,-1.04041 -1.54318,-12.12205 -3.90012,-16.72856 -1.70034,-3.32323 -3.44885,-5.06992 -6.53643,-6.52962 -6.17932,-2.92137 -6.90104,-7.64636 -1.68953,-11.06108 7.9677,-5.22064 20.07133,6.31998 23.44357,22.35307 4.45082,21.16108 -4.40655,55.06999 -18.09415,69.27036 -15.17652,15.74507 -40.98533,9.05551 -48.32062,-12.52455 -2.32583,-6.8425 -1.44084,-9.04503 3.63439,-9.04503 3.01362,0 3.66969,0.52331 5.95057,4.7465 4.96679,9.19632 11.0841,13.7535 18.46194,13.7535 6.40081,0 12.56822,-4.85311 17.79146,-14 2.85491,-4.99951 7.691,-20.70086 7.691,-24.97041 0,-2.6396 -0.30213,-2.80092 -7.75,-4.13813 -11.85801,-2.12902 -27.77358,-1.56283 -40.25,1.43188 -18.3704,4.40943 -53.18748,16.11965 -67.24967,22.61843 -14.92694,6.89843 -27.72865,17.939 -30.23015,26.07135 -0.42073,1.36779 -1.21498,3.04938 -1.76501,3.73688 -1.07283,1.34096 -3.99579,1.67604 -5.0885,0.58333 z m 202.94087,-9.15425 c -3.79085,-2.02349 -9.53534,-6.22394 -12.76553,-9.33432 -5.48225,-5.27893 -5.94382,-5.52305 -6.93628,-3.66862 -2.46061,4.59771 -12.06288,5.50707 -12.69958,1.20268 -0.16487,-1.11459 1.26643,-3.93808 3.26088,-6.43268 5.51791,-6.90164 8.65594,-17.91522 9.2781,-32.56347 0.5978,-14.07465 -0.69371,-21.40319 -6.8523,-38.88267 -4.4329,-12.58156 -4.56338,-13.58319 -2.06409,-15.84501 3.99561,-3.61598 8.1092,-0.89497 11.56272,7.64838 1.29026,3.19185 2.74251,5.88089 3.22723,5.97564 1.79833,0.35153 8.56144,-11.13746 11.37419,-19.32217 3.39932,-9.89151 6.2847,-12.94512 10.75511,-11.38218 3.81564,1.33401 4.01463,5.00768 0.76682,14.15625 -3.06931,8.64578 -6.8239,15.17579 -13.95411,24.26909 l -5.09676,6.5 1.37264,5.70441 c 1.36463,5.67112 1.39772,5.70818 5.66836,6.3486 2.36264,0.3543 7.76937,0.48731 12.01496,0.29559 7.31162,-0.33019 7.82176,-0.2129 9.66036,2.22116 1.64885,2.18286 1.76061,2.96591 0.74229,5.20089 -1.55704,3.41733 -4.96609,4.19264 -17.17255,3.90554 l -9.75,-0.22933 v 3.89558 c 0,3.48176 -2.25705,18.31261 -3.61335,23.74301 -0.6722,2.69137 10.34066,14.21604 16.11335,16.86219 9.46773,4.33993 12.07406,8.63601 7.27749,11.99566 -3.08243,2.15901 -4.31192,1.93027 -12.16995,-2.26422 z m -159.94087,-0.84575 c -0.36667,-0.36666 -0.66667,-3.06666 -0.66667,-6 0,-4 0.5,-5.83333 2,-7.33333 2.36814,-2.36814 3.35155,-2.48626 4.92413,-0.59142 1.32131,1.59209 0.46632,11.26191 -1.17963,13.34142 -1.06117,1.34069 -3.98464,1.67653 -5.07783,0.58333 z m 174.91039,-21.81572 c -6.84386,-2.81351 -9.09907,-4.71488 -8.24187,-6.94872 1.34523,-3.5056 4.9834,-3.91 12.7875,-1.4214 6.78482,2.16358 7.40428,2.58949 7.7131,5.3032 0.35194,3.09266 -1.79064,5.57104 -4.77692,5.52557 -0.85738,-0.0131 -4.22419,-1.11944 -7.48181,-2.45865 z M 538.32193,227.46641 c -7.77156,-8.53727 -8.92092,-11.18128 -6.0908,-14.0114 1.97505,-1.97506 4.37282,-1.99921 7.12463,-0.0718 3.33412,2.33535 14.30394,16.41553 14.30394,18.3597 0,2.50105 -1.99485,4.14067 -5.03777,4.14067 -2.03456,0 -4.38996,-1.92483 -10.3,-8.41717 z"
       id="path1" />
  </g>
</svg>
