<svg xmlns="http://www.w3.org/2000/svg" width="1024" height="1024" viewBox="0 0 1024 1024">
  <path d="M 478 712 L 467 718 L 458 727 L 454 734 L 451 744 L 451 762 L 453 769 L 459 780 L 470 790 L 485 797 L 502 799 L 503 800 L 503 819 L 510 821 L 520 820 L 522 818 L 522 800 L 523 799 L 540 797 L 551 793 L 556 790 L 569 775 L 574 759 L 574 745 L 572 737 L 566 726 L 557 717 L 543 710 L 534 708 L 497 708 L 496 709 L 488 709 Z M 523 724 L 532 724 L 533 725 L 536 725 L 539 727 L 541 727 L 543 729 L 544 729 L 551 736 L 551 737 L 553 739 L 553 741 L 554 742 L 554 744 L 555 745 L 555 759 L 554 760 L 554 763 L 553 764 L 553 765 L 552 766 L 551 769 L 549 771 L 549 772 L 545 776 L 544 776 L 539 780 L 538 780 L 537 781 L 535 781 L 534 782 L 532 782 L 531 783 L 523 783 L 522 782 L 522 725 Z M 491 724 L 502 724 L 503 725 L 503 782 L 502 783 L 495 783 L 494 782 L 491 782 L 490 781 L 488 781 L 487 780 L 484 779 L 482 777 L 481 777 L 474 770 L 474 769 L 473 768 L 473 767 L 472 766 L 472 765 L 470 762 L 470 759 L 469 758 L 469 745 L 470 744 L 470 742 L 471 741 L 471 740 L 472 739 L 473 736 L 475 734 L 475 733 L 478 730 L 479 730 L 481 728 L 482 728 L 483 727 L 484 727 L 487 725 L 490 725 Z M 452 107 L 451 108 L 449 108 L 447 110 L 446 110 L 446 111 L 444 113 L 444 114 L 443 115 L 443 117 L 442 118 L 442 122 L 441 123 L 441 126 L 442 127 L 442 136 L 443 137 L 443 139 L 444 140 L 444 142 L 445 143 L 445 144 L 446 145 L 446 146 L 447 147 L 447 148 L 453 154 L 454 154 L 455 155 L 458 155 L 459 156 L 460 155 L 466 155 L 467 154 L 468 154 L 473 149 L 473 148 L 474 147 L 474 145 L 475 144 L 475 129 L 474 128 L 474 125 L 473 124 L 473 122 L 472 121 L 472 119 L 471 118 L 471 117 L 470 116 L 470 115 L 464 109 L 463 109 L 460 107 Z M 487 75 L 399 89 L 322 118 L 258 156 L 197 209 L 147 272 L 106 352 L 84 432 L 78 518 L 89 600 L 116 679 L 159 753 L 217 818 L 283 868 L 366 908 L 444 928 L 530 933 L 616 921 L 698 892 L 777 844 L 835 791 L 889 718 L 927 634 L 944 556 L 946 473 L 933 395 L 900 310 L 858 244 L 800 183 L 739 138 L 657 99 L 569 78 Z M 605 719 L 647 718 L 648 719 L 668 719 L 669 720 L 669 724 L 643 750 L 641 751 L 641 752 L 643 753 L 669 779 L 669 783 L 668 784 L 605 784 L 604 783 L 604 778 L 609 771 L 609 769 L 611 766 L 612 759 L 613 758 L 613 744 L 612 743 L 612 740 L 611 739 L 609 731 L 604 724 L 604 720 Z M 357 719 L 377 719 L 378 718 L 388 718 L 389 719 L 419 719 L 420 720 L 420 725 L 416 732 L 416 734 L 414 737 L 413 743 L 412 744 L 412 760 L 413 761 L 415 769 L 421 778 L 421 783 L 420 784 L 357 784 L 356 783 L 356 779 L 379 756 L 380 756 L 384 752 L 384 751 L 382 750 L 371 739 L 370 739 L 368 736 L 356 724 L 356 720 Z M 508 679 L 517 679 L 528 683 L 571 703 L 584 712 L 596 724 L 601 731 L 606 744 L 606 756 L 604 764 L 592 783 L 574 800 L 550 819 L 529 832 L 515 838 L 510 838 L 492 830 L 459 807 L 429 779 L 421 765 L 419 758 L 419 744 L 425 729 L 436 716 L 464 697 Z M 515 659 L 517 650 L 528 631 L 548 613 L 572 600 L 593 593 L 615 589 L 675 589 L 680 592 L 701 625 L 702 631 L 735 674 L 735 678 L 638 678 L 637 673 L 640 671 L 632 670 L 633 665 L 638 665 L 625 664 L 624 659 L 639 658 L 640 654 L 665 654 L 651 652 L 596 651 L 582 653 L 548 663 L 536 669 L 532 675 L 528 675 L 516 669 Z M 292 678 L 292 673 L 322 633 L 324 625 L 345 592 L 349 589 L 407 589 L 437 594 L 459 601 L 482 614 L 496 626 L 508 644 L 512 667 L 497 676 L 492 676 L 491 671 L 482 665 L 463 659 L 457 659 L 454 655 L 427 650 L 370 652 L 352 655 L 380 655 L 381 658 L 394 659 L 393 664 L 378 665 L 385 666 L 385 670 L 381 674 L 369 675 L 368 678 Z M 368 576 L 380 566 L 409 555 L 415 550 L 432 541 L 437 535 L 442 536 L 442 540 L 440 544 L 441 547 L 443 543 L 448 544 L 449 553 L 450 540 L 452 537 L 456 537 L 462 547 L 465 549 L 471 549 L 474 552 L 477 561 L 486 568 L 488 575 L 494 580 L 494 584 L 501 588 L 502 590 L 501 600 L 496 600 L 483 589 L 483 595 L 503 610 L 511 618 L 511 625 L 506 626 L 495 615 L 482 606 L 456 593 L 437 587 L 406 582 L 369 581 Z M 560 488 L 560 494 L 543 494 L 544 499 L 547 502 L 551 499 L 556 499 L 564 503 L 570 502 L 578 512 L 580 518 L 580 525 L 576 526 L 573 532 L 569 532 L 561 525 L 559 520 L 553 514 L 553 512 L 551 514 L 551 517 L 548 522 L 549 529 L 551 528 L 553 523 L 557 523 L 559 527 L 567 534 L 567 538 L 565 539 L 566 549 L 559 563 L 554 564 L 553 561 L 542 551 L 541 542 L 544 538 L 542 531 L 539 538 L 535 538 L 528 526 L 524 523 L 521 516 L 519 515 L 525 529 L 525 540 L 519 547 L 519 553 L 514 565 L 514 571 L 509 572 L 506 569 L 505 558 L 500 554 L 496 547 L 496 536 L 500 530 L 501 525 L 507 522 L 506 515 L 508 513 L 518 512 L 518 509 L 525 503 L 530 503 L 529 496 L 533 492 L 541 492 L 541 489 L 543 487 Z M 113 495 L 114 494 L 125 494 L 126 493 L 127 493 L 128 492 L 128 490 L 129 489 L 129 487 L 130 486 L 130 484 L 132 481 L 137 481 L 138 482 L 138 483 L 139 484 L 139 486 L 140 487 L 140 488 L 141 489 L 141 490 L 143 493 L 154 493 L 156 495 L 156 499 L 149 506 L 148 506 L 147 507 L 147 511 L 148 512 L 148 514 L 149 515 L 149 521 L 148 522 L 143 522 L 138 518 L 135 517 L 126 523 L 122 523 L 121 522 L 121 516 L 122 515 L 122 513 L 123 512 L 123 508 L 118 503 L 117 503 L 113 499 Z M 888 480 L 892 480 L 894 482 L 894 484 L 895 485 L 895 487 L 896 488 L 896 490 L 898 493 L 900 493 L 901 494 L 911 494 L 912 495 L 912 499 L 906 505 L 905 505 L 902 508 L 902 512 L 903 513 L 903 516 L 904 517 L 904 522 L 903 523 L 898 523 L 896 521 L 895 521 L 893 519 L 892 519 L 891 518 L 888 518 L 887 519 L 884 520 L 882 522 L 881 522 L 880 523 L 876 523 L 875 522 L 875 518 L 876 517 L 876 515 L 877 514 L 877 512 L 878 511 L 878 507 L 877 506 L 876 506 L 869 499 L 869 495 L 870 494 L 874 494 L 875 493 L 882 493 L 883 492 L 883 491 L 885 488 L 885 486 L 886 485 L 886 484 L 887 483 L 887 481 Z M 534 339 L 553 350 L 552 360 L 542 363 L 552 364 L 555 357 L 560 356 L 575 371 L 586 414 L 564 417 L 558 411 L 555 421 L 566 462 L 559 465 L 537 463 L 540 453 L 548 455 L 546 451 L 539 452 L 508 489 L 498 490 L 497 487 L 497 494 L 509 493 L 531 468 L 549 472 L 552 480 L 529 485 L 521 492 L 516 504 L 504 507 L 503 502 L 498 514 L 490 507 L 496 526 L 488 539 L 479 543 L 478 519 L 472 520 L 471 508 L 474 500 L 481 506 L 488 493 L 472 499 L 468 511 L 462 513 L 457 487 L 470 453 L 475 454 L 475 461 L 482 467 L 483 478 L 492 483 L 479 457 L 479 448 L 474 444 L 474 434 L 473 452 L 462 455 L 463 433 L 476 424 L 491 402 L 483 401 L 481 373 L 493 358 L 480 369 L 479 400 L 474 397 L 450 403 L 449 396 L 466 371 L 451 385 L 446 384 L 443 376 L 456 359 L 485 341 L 502 337 Z M 870 301 L 877 315 L 879 317 L 884 327 L 884 329 L 885 330 L 885 340 L 883 344 L 880 347 L 876 349 L 868 349 L 861 344 L 861 355 L 859 359 L 855 363 L 851 365 L 841 365 L 835 362 L 830 357 L 830 356 L 826 351 L 817 333 L 817 328 L 818 327 L 823 327 L 827 324 L 829 324 L 850 313 L 852 313 L 862 308 L 865 305 L 865 302 L 866 301 Z M 167 291 L 178 291 L 179 292 L 182 293 L 189 300 L 189 301 L 191 304 L 191 315 L 190 316 L 190 318 L 189 319 L 188 322 L 184 327 L 184 329 L 187 332 L 188 332 L 193 335 L 195 335 L 198 337 L 202 337 L 203 338 L 203 343 L 202 344 L 201 347 L 199 349 L 199 350 L 196 355 L 192 355 L 191 354 L 191 350 L 189 348 L 184 346 L 182 344 L 171 339 L 169 337 L 162 334 L 160 332 L 155 330 L 151 327 L 145 327 L 144 326 L 144 322 L 145 321 L 149 312 L 151 310 L 153 305 L 155 303 L 155 302 L 157 300 L 157 299 L 163 293 L 164 293 Z M 289 267 L 293 267 L 294 272 L 251 318 L 209 401 L 194 467 L 194 539 L 208 602 L 244 675 L 273 712 L 305 743 L 347 772 L 347 778 L 337 775 L 295 744 L 244 688 L 225 658 L 205 615 L 187 543 L 187 463 L 205 391 L 225 348 L 244 318 Z M 705 242 L 739 270 L 768 301 L 790 331 L 814 376 L 834 439 L 840 482 L 840 522 L 826 598 L 789 676 L 734 740 L 694 771 L 678 778 L 679 771 L 717 748 L 752 714 L 785 669 L 804 635 L 820 594 L 833 524 L 832 472 L 827 441 L 804 372 L 769 314 L 734 275 L 700 247 L 700 243 Z M 826 241 L 835 253 L 835 257 L 829 259 L 805 277 L 799 283 L 798 285 L 798 292 L 801 297 L 807 302 L 815 302 L 819 300 L 846 279 L 846 274 L 847 273 L 851 273 L 857 280 L 857 285 L 856 286 L 851 286 L 824 306 L 818 309 L 815 309 L 814 310 L 805 309 L 797 304 L 788 293 L 786 287 L 787 277 L 791 270 L 796 265 L 817 251 L 821 247 L 821 242 L 822 241 Z M 210 229 L 214 229 L 215 230 L 215 234 L 246 260 L 255 264 L 254 270 L 246 279 L 242 279 L 241 278 L 241 274 L 229 263 L 225 262 L 222 265 L 219 265 L 219 269 L 216 270 L 216 273 L 212 276 L 211 279 L 224 290 L 231 291 L 232 292 L 232 297 L 224 307 L 220 307 L 217 301 L 200 289 L 183 275 L 177 275 L 176 274 L 176 270 L 186 258 L 190 258 L 191 259 L 191 263 L 204 274 L 208 273 L 208 271 L 211 268 L 213 268 L 213 265 L 214 264 L 217 264 L 217 260 L 219 258 L 219 256 L 207 246 L 201 244 L 201 240 Z M 786 201 L 797 212 L 797 216 L 796 217 L 792 217 L 791 218 L 790 218 L 761 247 L 761 248 L 760 249 L 760 250 L 768 258 L 769 258 L 772 260 L 781 260 L 782 261 L 782 265 L 780 267 L 779 267 L 776 270 L 771 270 L 765 264 L 764 264 L 744 244 L 744 240 L 745 239 L 749 239 L 750 238 L 751 238 L 756 233 L 756 232 L 776 212 L 776 211 L 781 206 L 781 202 L 782 201 Z M 202 460 L 240 351 L 321 259 L 428 205 L 536 194 L 648 224 L 745 296 L 806 394 L 826 506 L 813 551 L 813 524 L 759 554 L 797 513 L 803 448 L 767 483 L 788 439 L 775 378 L 756 416 L 761 370 L 734 323 L 727 355 L 699 287 L 695 305 L 652 275 L 679 314 L 660 317 L 718 397 L 732 453 L 712 580 L 702 564 L 688 581 L 666 581 L 686 505 L 672 427 L 620 359 L 526 323 L 551 259 L 526 243 L 510 253 L 506 239 L 473 260 L 498 323 L 415 352 L 353 425 L 339 508 L 355 569 L 335 581 L 322 565 L 314 602 L 311 551 L 292 519 L 293 452 L 307 397 L 364 317 L 347 314 L 373 275 L 330 304 L 326 288 L 311 301 L 298 357 L 288 323 L 265 367 L 269 416 L 249 379 L 237 434 L 258 483 L 222 448 L 227 510 L 266 554 L 211 523 L 210 547 Z M 363 216 L 403 198 L 451 185 L 486 180 L 539 180 L 580 186 L 625 199 L 678 224 L 699 238 L 700 243 L 695 244 L 662 223 L 621 205 L 580 193 L 540 187 L 502 186 L 462 190 L 411 202 L 368 221 L 364 221 Z M 727 168 L 742 168 L 743 169 L 745 169 L 754 174 L 755 176 L 757 176 L 768 187 L 768 191 L 762 199 L 758 199 L 757 198 L 757 192 L 758 191 L 758 189 L 752 180 L 750 180 L 744 177 L 738 177 L 731 180 L 722 189 L 721 192 L 719 194 L 719 196 L 716 202 L 716 210 L 717 211 L 717 213 L 721 219 L 725 222 L 732 224 L 733 225 L 738 225 L 739 226 L 739 230 L 737 232 L 730 232 L 718 226 L 709 218 L 705 212 L 705 210 L 703 207 L 703 194 L 704 193 L 704 190 L 708 182 L 718 172 Z M 338 136 L 349 136 L 350 137 L 353 137 L 360 141 L 369 151 L 373 162 L 373 173 L 371 180 L 363 190 L 359 190 L 358 189 L 358 185 L 361 180 L 361 175 L 360 174 L 359 166 L 355 158 L 352 154 L 343 146 L 340 145 L 332 145 L 329 147 L 327 147 L 323 153 L 323 165 L 328 177 L 333 184 L 339 189 L 344 191 L 349 191 L 350 190 L 354 190 L 355 191 L 355 195 L 354 196 L 344 199 L 335 199 L 325 195 L 316 186 L 312 179 L 310 173 L 310 160 L 314 151 L 322 143 L 324 143 L 325 141 Z M 385 116 L 387 115 L 389 115 L 390 114 L 392 114 L 393 113 L 401 113 L 402 112 L 406 112 L 408 115 L 408 117 L 409 118 L 409 122 L 408 123 L 404 123 L 401 120 L 399 120 L 398 119 L 395 119 L 394 120 L 392 120 L 390 121 L 387 124 L 386 126 L 386 130 L 387 132 L 391 135 L 394 135 L 395 136 L 402 136 L 403 137 L 408 137 L 409 138 L 412 138 L 416 140 L 421 145 L 423 149 L 423 151 L 424 152 L 424 157 L 423 158 L 423 161 L 422 163 L 417 169 L 412 169 L 411 168 L 411 164 L 413 161 L 413 158 L 412 156 L 409 153 L 407 152 L 405 152 L 404 151 L 398 151 L 397 150 L 391 150 L 390 149 L 387 149 L 386 148 L 384 148 L 382 147 L 377 142 L 375 138 L 375 135 L 374 134 L 374 130 L 375 129 L 375 127 L 377 123 L 382 118 L 383 118 Z M 567 101 L 581 103 L 585 105 L 585 109 L 581 112 L 581 116 L 579 122 L 579 128 L 591 132 L 602 133 L 606 117 L 605 115 L 605 110 L 606 109 L 611 109 L 624 113 L 624 117 L 621 118 L 619 121 L 617 133 L 614 142 L 614 146 L 612 151 L 612 155 L 610 160 L 610 168 L 609 169 L 601 169 L 591 166 L 591 162 L 596 160 L 600 141 L 596 139 L 588 138 L 583 136 L 577 136 L 576 138 L 574 150 L 573 151 L 573 156 L 574 157 L 574 161 L 573 162 L 568 162 L 556 159 L 556 155 L 559 152 L 561 138 L 567 114 L 567 107 L 566 106 L 566 102 Z M 452 100 L 468 100 L 469 101 L 471 101 L 472 102 L 475 103 L 477 105 L 478 105 L 486 113 L 486 114 L 488 117 L 489 122 L 490 123 L 490 139 L 489 140 L 489 142 L 488 143 L 486 148 L 478 156 L 477 156 L 475 158 L 474 158 L 471 160 L 469 160 L 468 161 L 465 161 L 464 162 L 450 162 L 449 161 L 447 161 L 446 160 L 444 160 L 443 159 L 442 159 L 440 157 L 439 157 L 432 150 L 432 149 L 429 144 L 428 139 L 427 138 L 427 123 L 428 122 L 428 120 L 429 119 L 431 114 L 433 112 L 433 111 L 437 107 L 438 107 L 440 105 L 441 105 L 448 101 L 451 101 Z M 505 97 L 529 97 L 530 98 L 535 98 L 536 99 L 541 100 L 543 102 L 544 102 L 547 105 L 547 106 L 549 108 L 549 110 L 550 111 L 550 120 L 549 121 L 549 123 L 548 124 L 548 125 L 542 131 L 541 131 L 538 133 L 536 133 L 535 134 L 520 134 L 520 151 L 521 152 L 521 156 L 520 157 L 504 157 L 503 156 L 503 152 L 505 150 L 505 135 L 506 134 L 506 104 L 504 102 L 504 98 Z M 488 59 L 397 73 L 310 106 L 238 151 L 173 211 L 128 272 L 90 349 L 67 434 L 62 526 L 77 619 L 105 694 L 147 764 L 207 831 L 273 881 L 357 922 L 447 945 L 533 949 L 619 937 L 702 908 L 787 857 L 851 798 L 895 740 L 936 658 L 958 575 L 963 483 L 947 384 L 919 311 L 868 230 L 814 173 L 741 120 L 652 80 L 572 62 Z M 453 69 L 543 66 L 630 81 L 699 106 L 783 157 L 849 219 L 902 294 L 937 376 L 955 467 L 954 550 L 939 626 L 904 710 L 859 777 L 796 840 L 727 887 L 645 922 L 565 939 L 478 941 L 400 928 L 323 900 L 241 850 L 178 791 L 128 722 L 93 647 L 73 566 L 69 482 L 80 405 L 107 326 L 158 241 L 219 176 L 286 127 L 360 92 Z" fill="#000" fill-rule="evenodd"/>
</svg>
